<svg width="1601" height="269" viewBox="0 0 1601 269" fill="none" xmlns="http://www.w3.org/2000/svg">
<path d="M1539.41 24.1011H1565.51C1568.09 24.0123 1570.67 24.3766 1573.12 25.1773C1574.45 25.5996 1575.68 26.3057 1576.71 27.2469C1577.74 28.1746 1578.55 29.3195 1579.09 30.5994C1579.58 31.9234 1579.83 33.3254 1579.83 34.7386C1579.92 36.6695 1579.53 38.5925 1578.67 40.3265C1577.75 42.0022 1576.29 43.3211 1574.53 44.0726L1573.99 44.3212C1574.82 44.5696 1575.65 44.8592 1576.46 45.1903C1577.36 45.5935 1578.13 46.2469 1578.67 47.0735C1579.22 47.8966 1579.53 48.8575 1579.56 49.8469C1579.69 51.751 1579.56 53.655 1579.56 55.5591V58.477H1569.54V52.2682C1569.53 51.817 1569.48 51.3677 1569.4 50.9232C1569.34 50.4314 1569.13 49.9721 1568.78 49.619C1568.44 49.2514 1567.99 49.0167 1567.5 48.9571C1566.81 48.8326 1566.12 48.7701 1565.43 48.7707H1549.22V58.4978H1539.22L1539.41 24.1011ZM1549.43 40.658H1563.81C1564.7 40.6585 1565.58 40.5961 1566.46 40.4715C1567.17 40.4291 1567.85 40.1361 1568.36 39.6439C1568.88 39.1531 1569.21 38.4913 1569.28 37.7809C1569.38 36.8663 1569.38 35.9433 1569.28 35.0287C1569.17 34.363 1568.86 33.7469 1568.39 33.2693C1567.9 32.7917 1567.28 32.4864 1566.61 32.4002C1566.03 32.3112 1565.45 32.2627 1564.87 32.2552H1549.53L1549.43 40.658Z" fill="#5940BE"/>
<path d="M1559.34 82.4641C1549.81 82.4922 1540.57 79.2135 1533.19 73.1867C1525.8 67.1599 1520.74 58.7585 1518.86 49.416C1516.98 40.0735 1518.4 30.3687 1522.88 21.9567C1527.36 13.5448 1534.62 6.94684 1543.42 3.28876C1552.22 -0.369315 1562.01 -0.861202 1571.13 1.89723C1580.26 4.65566 1588.14 10.4935 1593.44 18.4147C1598.73 26.3359 1601.12 35.8496 1600.19 45.3333C1599.25 54.817 1595.06 63.683 1588.32 70.4188C1580.62 78.0923 1570.21 82.4207 1559.34 82.4641V82.4641ZM1559.34 5.04005C1550.94 5.03073 1542.79 7.93664 1536.29 13.2624C1529.78 18.5882 1525.33 26.0039 1523.68 34.246C1522.04 42.4882 1523.3 51.0462 1527.26 58.4614C1531.21 65.8767 1537.62 71.69 1545.38 74.9107C1553.15 78.1314 1561.79 78.56 1569.83 76.1234C1577.87 73.6868 1584.82 68.5359 1589.5 61.5487C1594.17 54.5614 1596.27 46.1703 1595.45 37.8057C1594.63 29.4411 1590.93 21.6207 1584.98 15.6776C1578.17 8.89718 1568.95 5.08172 1559.34 5.06077V5.04005Z" fill="#5940BE"/>
<path d="M1398.16 17.9754H1319.33C1289.51 17.9754 1250.12 26.3988 1231.37 52.1655L1231.18 52.4136L1248.65 72.9233C1261.17 89.2732 1269.55 103.015 1269.55 103.015L1272.16 100.491C1284.58 86.8726 1310.2 82.1541 1322.29 82.1541H1390.01C1404.22 82.1541 1417.85 87.7994 1427.89 97.848C1437.94 107.897 1443.59 121.525 1443.59 135.736V150.223C1443.59 164.434 1437.94 178.063 1427.89 188.112C1417.85 198.16 1404.22 203.806 1390.01 203.806H1339.53C1292.82 203.806 1287.44 182.013 1257.12 130.645C1226.8 79.2772 1188.11 17.8926 1103.1 17.8926H1015.18C983.342 17.8926 952.81 30.5393 930.299 53.0507C907.787 75.5621 895.141 106.094 895.141 137.93V148.009C895.141 179.845 907.787 210.377 930.299 232.888C952.81 255.4 983.342 268.046 1015.18 268.046H1086.56C1115.91 268.046 1152.79 259.54 1180.66 226.054C1182.98 223.653 1191.8 211.732 1191.8 211.732L1194.97 207.014C1194.97 207.014 1177.25 179.922 1161.29 151.631C1143.37 119.883 1131.2 118.29 1125.01 118.29H1030.99V170.672H1133.42L1134.74 172.017V173.403C1134.74 181.495 1129.5 188.346 1121.27 194.099C1112.38 200.496 1101.67 203.876 1090.72 203.744H1023.08C1016.07 203.747 1009.12 202.366 1002.64 199.683C996.157 196.999 990.267 193.065 985.307 188.105C980.346 183.144 976.411 177.254 973.728 170.772C971.044 164.29 969.665 157.343 969.667 150.327V135.488C969.665 128.472 971.044 121.523 973.728 115.04C976.411 108.557 980.345 102.665 985.305 97.703C990.266 92.7406 996.155 88.8043 1002.64 86.1185C1009.12 83.4328 1016.07 82.0506 1023.08 82.0506H1109.24C1149.7 82.0506 1168.37 114.088 1192.85 155.211C1217.34 196.334 1253.39 267.984 1339.47 267.984H1398.16C1430 267.984 1460.53 255.337 1483.04 232.826C1505.55 210.315 1518.2 179.783 1518.2 147.947V137.868C1518.16 106.057 1505.5 75.5621 1482.99 53.0821C1460.48 30.602 1429.97 17.9754 1398.16 17.9754Z" fill="#5940BE"/>
<path d="M71.268 20.2103H0.383789V265.77H71.268V20.2103Z" fill="#5940BE"/>
<path d="M866.309 20.2103H795.425V265.77H866.309V20.2103Z" fill="#5940BE"/>
<path d="M184.601 91.8191V89.915L185.594 91.0326L184.601 91.8191Z" fill="#5940BE"/>
<path d="M363.352 20.376V194.451L362.442 195.155C356.978 188.573 261.486 72.7163 218.273 20.1688H113.405V265.667H184.683V89.9975C185.966 91.4463 184.952 91.0323 185.655 91.0116C232.449 147.698 282.803 208.98 329.473 265.729H434.154V20.376H363.352Z" fill="#5940BE"/>
<path d="M713.966 36.6843C693.973 24.6185 672.139 20.1274 649.228 20.1274C592.438 20.1274 474.429 20.2932 474.429 20.2932V265.853C474.429 265.853 588.858 265.853 644.923 265.853C705.542 265.853 732.385 240.293 746.5 218.521C756.584 203.137 762.907 185.597 764.961 167.319C768.355 140.165 767.279 113.384 756.931 87.6592C748.75 66.3187 733.613 48.3596 713.966 36.6843ZM688.944 169.678C683.418 190.374 665.619 205.441 636.976 205.441C625.283 205.441 621.93 205.213 609.347 205.441C589.872 205.606 570.397 205.441 550.901 205.441H547.031L546.037 204.654V82.2987L547.031 81.5332C547.031 81.5332 605.477 80.602 635.031 81.1608C670.504 81.1608 682.922 98.9802 687.495 112.205C693.766 130.778 694.271 150.813 688.944 169.678Z" fill="#5940BE"/>
</svg>
