<svg width="1601" height="269" viewBox="0 0 1601 269" fill="none" xmlns="http://www.w3.org/2000/svg">
<path d="M1539.77 24.2361H1565.87C1568.45 24.1474 1571.03 24.5116 1573.49 25.3123C1574.81 25.7346 1576.04 26.4407 1577.07 27.3819C1578.1 28.3096 1578.91 29.4545 1579.45 30.7344C1579.94 32.0584 1580.19 33.4604 1580.19 34.8737C1580.29 36.8045 1579.89 38.7275 1579.03 40.4615C1578.11 42.1373 1576.65 43.4561 1574.89 44.2076L1574.35 44.4562C1575.18 44.7046 1576.01 44.9942 1576.82 45.3253C1577.72 45.7286 1578.49 46.382 1579.03 47.2085C1579.58 48.0316 1579.89 48.9925 1579.92 49.9819C1580.05 51.886 1579.92 53.79 1579.92 55.6941V58.612H1569.9V52.4032C1569.89 51.952 1569.84 51.5028 1569.76 51.0582C1569.7 50.5664 1569.49 50.1071 1569.14 49.754C1568.8 49.3864 1568.35 49.1517 1567.86 49.0921C1567.17 48.9676 1566.48 48.9051 1565.79 48.9057H1549.58V58.6328H1539.58L1539.77 24.2361ZM1549.79 40.793H1564.17C1565.06 40.7935 1565.94 40.7311 1566.82 40.6065C1567.53 40.5641 1568.21 40.2711 1568.73 39.7789C1569.24 39.2881 1569.57 38.6263 1569.64 37.9159C1569.74 37.0013 1569.74 36.0783 1569.64 35.1637C1569.53 34.498 1569.22 33.8819 1568.75 33.4043C1568.26 32.9267 1567.64 32.6214 1566.97 32.5352C1566.39 32.4462 1565.81 32.3977 1565.23 32.3902H1549.89L1549.79 40.793Z" fill="#5940BE"/>
<path d="M1559.7 82.5991C1550.17 82.6273 1540.93 79.3485 1533.55 73.3217C1526.16 67.2949 1521.1 58.8935 1519.22 49.551C1517.34 40.2085 1518.76 30.5037 1523.24 22.0917C1527.72 13.6798 1534.98 7.08185 1543.78 3.42377C1552.58 -0.234306 1562.37 -0.726192 1571.5 2.03224C1580.62 4.79067 1588.5 10.6285 1593.8 18.5497C1599.09 26.4709 1601.48 35.9846 1600.55 45.4683C1599.61 54.952 1595.42 63.818 1588.68 70.5538C1580.98 78.2273 1570.57 82.5557 1559.7 82.5991V82.5991ZM1559.7 5.17506C1551.3 5.16574 1543.15 8.07165 1536.65 13.3974C1530.14 18.7232 1525.69 26.1389 1524.04 34.381C1522.4 42.6232 1523.66 51.1812 1527.62 58.5964C1531.57 66.0117 1537.98 71.825 1545.74 75.0457C1553.51 78.2664 1562.15 78.695 1570.19 76.2584C1578.23 73.8218 1585.18 68.6709 1589.86 61.6837C1594.53 54.6964 1596.63 46.3053 1595.81 37.9407C1594.99 29.5761 1591.29 21.7557 1585.34 15.8126C1578.53 9.03218 1569.31 5.21673 1559.7 5.19578V5.17506Z" fill="#5940BE"/>
<path d="M1398.52 18.1105H1319.69C1289.87 18.1105 1250.48 26.5338 1231.73 52.3005L1231.54 52.5486L1249.01 73.0583C1261.53 89.4082 1269.91 103.151 1269.91 103.151L1272.52 100.626C1284.94 87.0076 1310.56 82.2892 1322.65 82.2892H1390.37C1404.58 82.2892 1418.21 87.9344 1428.25 97.983C1438.3 108.032 1443.95 121.66 1443.95 135.871V150.358C1443.95 164.569 1438.3 178.198 1428.25 188.247C1418.21 198.295 1404.58 203.941 1390.37 203.941H1339.89C1293.18 203.941 1287.8 182.148 1257.48 130.78C1227.16 79.4123 1188.48 18.0276 1103.46 18.0276H1015.54C983.703 18.0276 953.171 30.6743 930.659 53.1857C908.148 75.6971 895.501 106.229 895.501 138.065V148.144C895.501 179.98 908.148 210.512 930.659 233.023C953.171 255.535 983.703 268.181 1015.54 268.181H1086.92C1116.27 268.181 1153.15 259.675 1181.02 226.189C1183.34 223.788 1192.16 211.867 1192.16 211.867L1195.33 207.149C1195.33 207.149 1177.61 180.057 1161.65 151.766C1143.73 120.018 1131.56 118.425 1125.37 118.425H1031.35V170.807H1133.78L1135.1 172.152V173.538C1135.1 181.63 1129.86 188.481 1121.63 194.234C1112.74 200.631 1102.03 204.011 1091.08 203.879H1023.44C1016.43 203.882 1009.48 202.501 1003 199.818C996.518 197.135 990.628 193.2 985.667 188.24C980.706 183.279 976.772 177.389 974.088 170.907C971.405 164.425 970.025 157.478 970.028 150.462V135.623C970.025 128.607 971.405 121.658 974.088 115.175C976.771 108.692 980.705 102.8 985.666 97.838C990.626 92.8756 996.516 88.9393 1003 86.2536C1009.48 83.5678 1016.43 82.1856 1023.44 82.1856H1109.6C1150.06 82.1856 1168.73 114.223 1193.21 155.346C1217.7 196.469 1253.75 268.119 1339.83 268.119H1398.52C1430.36 268.119 1460.89 255.472 1483.4 232.961C1505.91 210.45 1518.56 179.918 1518.56 148.082V138.003C1518.52 106.192 1505.86 75.6971 1483.35 53.2171C1460.84 30.737 1430.33 18.1104 1398.52 18.1105Z" fill="#5940BE"/>
<path d="M71.6284 20.3453H0.744141V265.905H71.6284V20.3453Z" fill="black"/>
<path d="M866.67 20.3453H795.786V265.905H866.67V20.3453Z" fill="black"/>
<path d="M184.961 91.9541V90.05L185.954 91.1677L184.961 91.9541Z" fill="black"/>
<path d="M363.713 20.511V194.586L362.802 195.29C357.338 188.708 261.846 72.8513 218.633 20.3038H113.766V265.802H185.043V90.1325C186.326 91.5813 185.312 91.1673 186.016 91.1466C232.81 147.833 283.163 209.115 329.833 265.864H434.514V20.511H363.713Z" fill="black"/>
<path d="M714.326 36.8192C694.334 24.7534 672.499 20.2623 649.589 20.2623C592.798 20.2623 474.789 20.4281 474.789 20.4281V265.988C474.789 265.988 589.218 265.988 645.284 265.988C705.903 265.988 732.746 240.428 746.86 218.656C756.944 203.272 763.268 185.732 765.321 167.453C768.715 140.3 767.639 113.519 757.291 87.794C749.111 66.4536 733.974 48.4945 714.326 36.8192ZM689.304 169.813C683.779 190.509 665.98 205.576 637.336 205.576C625.643 205.576 622.29 205.348 609.707 205.576C590.232 205.741 570.757 205.576 551.261 205.576H547.391L546.398 204.789V82.4336L547.391 81.6681C547.391 81.6681 605.837 80.7369 635.391 81.2957C670.864 81.2957 683.282 99.1151 687.856 112.34C694.126 130.913 694.631 150.947 689.304 169.813Z" fill="black"/>
</svg>
