<svg width="1601" height="269" viewBox="0 0 1601 269" fill="none" xmlns="http://www.w3.org/2000/svg">
<path d="M1539.77 24.1011H1565.87C1568.45 24.0123 1571.03 24.3766 1573.49 25.1773C1574.81 25.5996 1576.04 26.3057 1577.07 27.2469C1578.1 28.1746 1578.91 29.3195 1579.45 30.5994C1579.94 31.9234 1580.19 33.3254 1580.19 34.7386C1580.29 36.6695 1579.89 38.5925 1579.03 40.3265C1578.11 42.0022 1576.65 43.3211 1574.89 44.0726L1574.35 44.3212C1575.18 44.5696 1576.01 44.8592 1576.82 45.1903C1577.72 45.5935 1578.49 46.2469 1579.03 47.0735C1579.58 47.8966 1579.89 48.8575 1579.92 49.8469C1580.05 51.751 1579.92 53.655 1579.92 55.5591V58.477H1569.9V52.2682C1569.89 51.817 1569.84 51.3677 1569.76 50.9232C1569.7 50.4314 1569.49 49.9721 1569.14 49.619C1568.8 49.2514 1568.35 49.0167 1567.86 48.9571C1567.17 48.8326 1566.48 48.7701 1565.79 48.7707H1549.58V58.4978H1539.58L1539.77 24.1011ZM1549.79 40.658H1564.17C1565.06 40.6585 1565.94 40.5961 1566.82 40.4715C1567.53 40.4291 1568.21 40.1361 1568.73 39.6439C1569.24 39.1531 1569.57 38.4913 1569.64 37.7809C1569.74 36.8663 1569.74 35.9433 1569.64 35.0287C1569.53 34.363 1569.22 33.7469 1568.75 33.2693C1568.26 32.7917 1567.64 32.4864 1566.97 32.4002C1566.39 32.3112 1565.81 32.2627 1565.23 32.2552H1549.89L1549.79 40.658Z" fill="#D2BDFB"/>
<path d="M1559.7 82.4641C1550.17 82.4922 1540.93 79.2135 1533.55 73.1867C1526.16 67.1599 1521.1 58.7585 1519.22 49.416C1517.34 40.0735 1518.76 30.3687 1523.24 21.9567C1527.72 13.5448 1534.98 6.94684 1543.78 3.28876C1552.58 -0.369315 1562.37 -0.861202 1571.5 1.89723C1580.62 4.65566 1588.5 10.4935 1593.8 18.4147C1599.09 26.3359 1601.48 35.8496 1600.55 45.3333C1599.61 54.817 1595.42 63.683 1588.68 70.4188C1580.98 78.0923 1570.57 82.4207 1559.7 82.4641V82.4641ZM1559.7 5.04005C1551.3 5.03073 1543.15 7.93664 1536.65 13.2624C1530.14 18.5882 1525.69 26.0039 1524.04 34.246C1522.4 42.4882 1523.66 51.0462 1527.62 58.4614C1531.57 65.8767 1537.98 71.69 1545.74 74.9107C1553.51 78.1314 1562.15 78.56 1570.19 76.1234C1578.23 73.6868 1585.18 68.5359 1589.86 61.5487C1594.53 54.5614 1596.63 46.1703 1595.81 37.8057C1594.99 29.4411 1591.29 21.6207 1585.34 15.6776C1578.53 8.89718 1569.31 5.08172 1559.7 5.06077V5.04005Z" fill="#D2BDFB"/>
<path d="M1398.52 17.9754H1319.69C1289.87 17.9754 1250.48 26.3988 1231.73 52.1655L1231.54 52.4136L1249.01 72.9233C1261.53 89.2732 1269.91 103.015 1269.91 103.015L1272.52 100.491C1284.94 86.8726 1310.56 82.1541 1322.65 82.1541H1390.37C1404.58 82.1541 1418.21 87.7994 1428.25 97.848C1438.3 107.897 1443.95 121.525 1443.95 135.736V150.223C1443.95 164.434 1438.3 178.063 1428.25 188.112C1418.21 198.16 1404.58 203.806 1390.37 203.806H1339.89C1293.18 203.806 1287.8 182.013 1257.48 130.645C1227.16 79.2772 1188.48 17.8926 1103.46 17.8926H1015.54C983.703 17.8926 953.171 30.5393 930.659 53.0507C908.148 75.5621 895.501 106.094 895.501 137.93V148.009C895.501 179.845 908.148 210.377 930.659 232.888C953.171 255.4 983.703 268.046 1015.54 268.046H1086.92C1116.27 268.046 1153.15 259.54 1181.02 226.054C1183.34 223.653 1192.16 211.732 1192.16 211.732L1195.33 207.014C1195.33 207.014 1177.61 179.922 1161.65 151.631C1143.73 119.883 1131.56 118.29 1125.37 118.29H1031.35V170.672H1133.78L1135.1 172.017V173.403C1135.1 181.495 1129.86 188.346 1121.63 194.099C1112.74 200.496 1102.03 203.876 1091.08 203.744H1023.44C1016.43 203.747 1009.48 202.366 1003 199.683C996.518 196.999 990.628 193.065 985.667 188.105C980.706 183.144 976.772 177.254 974.088 170.772C971.405 164.29 970.025 157.343 970.028 150.327V135.488C970.025 128.472 971.405 121.523 974.088 115.04C976.771 108.557 980.705 102.665 985.666 97.703C990.626 92.7406 996.516 88.8043 1003 86.1185C1009.48 83.4328 1016.43 82.0506 1023.44 82.0506H1109.6C1150.06 82.0506 1168.73 114.088 1193.21 155.211C1217.7 196.334 1253.75 267.984 1339.83 267.984H1398.52C1430.36 267.984 1460.89 255.337 1483.4 232.826C1505.91 210.315 1518.56 179.783 1518.56 147.947V137.868C1518.52 106.057 1505.86 75.5621 1483.35 53.0821C1460.84 30.602 1430.33 17.9754 1398.52 17.9754Z" fill="#D2BDFB"/>
<path d="M71.6284 20.2103H0.744141V265.77H71.6284V20.2103Z" fill="#5940BE"/>
<path d="M866.67 20.2103H795.786V265.77H866.67V20.2103Z" fill="#5940BE"/>
<path d="M184.961 91.8191V89.915L185.954 91.0326L184.961 91.8191Z" fill="#5940BE"/>
<path d="M363.713 20.376V194.451L362.802 195.155C357.338 188.573 261.846 72.7163 218.633 20.1688H113.766V265.667H185.043V89.9975C186.326 91.4463 185.312 91.0323 186.016 91.0116C232.81 147.698 283.163 208.98 329.833 265.729H434.514V20.376H363.713Z" fill="#5940BE"/>
<path d="M714.326 36.6842C694.334 24.6184 672.499 20.1273 649.589 20.1273C592.798 20.1273 474.789 20.2931 474.789 20.2931V265.853C474.789 265.853 589.218 265.853 645.284 265.853C705.903 265.853 732.746 240.293 746.86 218.521C756.944 203.137 763.268 185.597 765.321 167.318C768.715 140.165 767.639 113.384 757.291 87.659C749.111 66.3186 733.974 48.3595 714.326 36.6842ZM689.304 169.678C683.779 190.374 665.98 205.441 637.336 205.441C625.643 205.441 622.29 205.213 609.707 205.441C590.232 205.606 570.757 205.441 551.261 205.441H547.391L546.398 204.654V82.2986L547.391 81.5331C547.391 81.5331 605.837 80.6019 635.391 81.1607C670.864 81.1607 683.282 98.98 687.856 112.205C694.126 130.778 694.631 150.812 689.304 169.678Z" fill="#5940BE"/>
</svg>
