<svg width="1601" height="268" viewBox="0 0 1601 268" fill="none" xmlns="http://www.w3.org/2000/svg">
<path d="M1539.77 23.9662H1565.87C1568.45 23.8775 1571.03 24.2418 1573.49 25.0425C1574.81 25.4647 1576.04 26.1709 1577.07 27.1121C1578.1 28.0398 1578.91 29.1847 1579.45 30.4646C1579.94 31.7886 1580.19 33.1906 1580.19 34.6038C1580.29 36.5347 1579.89 38.4577 1579.03 40.1917C1578.11 41.8674 1576.65 43.1862 1574.89 43.9378L1574.35 44.1864C1575.18 44.4347 1576.01 44.7243 1576.82 45.0555C1577.72 45.4587 1578.49 46.1121 1579.03 46.9386C1579.58 47.7618 1579.89 48.7227 1579.92 49.7121C1580.05 51.6161 1579.92 53.5202 1579.92 55.4242V58.3422H1569.9V52.1334C1569.89 51.6822 1569.84 51.2329 1569.76 50.7883C1569.7 50.2965 1569.49 49.8372 1569.14 49.4842C1568.8 49.1166 1568.35 48.8818 1567.86 48.8223C1567.17 48.6978 1566.48 48.6353 1565.79 48.6359H1549.58V58.3629H1539.58L1539.77 23.9662ZM1549.79 40.5231H1564.17C1565.06 40.5237 1565.94 40.4612 1566.82 40.3367C1567.53 40.2943 1568.21 40.0012 1568.73 39.509C1569.24 39.0183 1569.57 38.3565 1569.64 37.6461C1569.74 36.7315 1569.74 35.8085 1569.64 34.8938C1569.53 34.2281 1569.22 33.6121 1568.75 33.1345C1568.26 32.6569 1567.64 32.3515 1566.97 32.2654C1566.39 32.1764 1565.81 32.1279 1565.23 32.1204H1549.89L1549.79 40.5231Z" fill="#D2BDFB"/>
<path d="M1559.7 82.3291C1550.17 82.3572 1540.93 79.0785 1533.55 73.0517C1526.16 67.0249 1521.1 58.6234 1519.22 49.2809C1517.34 39.9384 1518.76 30.2336 1523.24 21.8217C1527.72 13.4097 1534.98 6.81183 1543.78 3.15375C1552.58 -0.504325 1562.37 -0.996212 1571.5 1.76222C1580.62 4.52065 1588.5 10.3585 1593.8 18.2797C1599.09 26.2009 1601.48 35.7146 1600.55 45.1983C1599.61 54.682 1595.42 63.548 1588.68 70.2838C1580.98 77.9573 1570.57 82.2857 1559.7 82.3291V82.3291ZM1559.7 4.90504C1551.3 4.89572 1543.15 7.80163 1536.65 13.1274C1530.14 18.4532 1525.69 25.8689 1524.04 34.111C1522.4 42.3532 1523.66 50.9112 1527.62 58.3264C1531.57 65.7416 1537.98 71.555 1545.74 74.7757C1553.51 77.9964 1562.15 78.4249 1570.19 75.9883C1578.23 73.5518 1585.18 68.4009 1589.86 61.4136C1594.53 54.4264 1596.63 46.0353 1595.81 37.6707C1594.99 29.3061 1591.29 21.4857 1585.34 15.5426C1578.53 8.76217 1569.31 4.94671 1559.7 4.92576V4.90504Z" fill="#D2BDFB"/>
<path d="M1398.52 17.8403H1319.69C1289.87 17.8403 1250.48 26.2637 1231.73 52.0304L1231.54 52.2784L1249.01 72.7881C1261.53 89.1381 1269.91 102.88 1269.91 102.88L1272.52 100.355C1284.94 86.7374 1310.56 82.019 1322.65 82.019H1390.37C1404.58 82.019 1418.21 87.6643 1428.25 97.7129C1438.3 107.762 1443.95 121.39 1443.95 135.601V150.088C1443.95 164.299 1438.3 177.928 1428.25 187.977C1418.21 198.025 1404.58 203.67 1390.37 203.67H1339.89C1293.18 203.67 1287.8 181.878 1257.48 130.51C1227.16 79.1421 1188.48 17.7574 1103.46 17.7574H1015.54C983.703 17.7574 953.171 30.4042 930.659 52.9156C908.148 75.427 895.501 105.959 895.501 137.795V147.874C895.501 179.71 908.148 210.242 930.659 232.753C953.171 255.264 983.703 267.911 1015.54 267.911H1086.92C1116.27 267.911 1153.15 259.405 1181.02 225.919C1183.34 223.518 1192.16 211.597 1192.16 211.597L1195.33 206.878C1195.33 206.878 1177.61 179.787 1161.65 151.496C1143.73 119.748 1131.56 118.154 1125.37 118.154H1031.35V170.536H1133.78L1135.1 171.881V173.268C1135.1 181.36 1129.86 188.211 1121.63 193.964C1112.74 200.361 1102.03 203.741 1091.08 203.609H1023.44C1016.43 203.611 1009.48 202.231 1003 199.548C996.518 196.864 990.628 192.93 985.667 187.969C980.706 183.009 976.772 177.119 974.088 170.637C971.405 164.155 970.025 157.207 970.028 150.192V135.353C970.025 128.336 971.405 121.388 974.088 114.905C976.771 108.422 980.705 102.53 985.666 97.5679C990.626 92.6055 996.516 88.6691 1003 85.9834C1009.48 83.2977 1016.43 81.9154 1023.44 81.9154H1109.6C1150.06 81.9154 1168.73 113.953 1193.21 155.076C1217.7 196.199 1253.75 267.849 1339.83 267.849H1398.52C1430.36 267.849 1460.89 255.202 1483.4 232.691C1505.91 210.18 1518.56 179.648 1518.56 147.812V137.733C1518.52 105.922 1505.86 75.427 1483.35 52.9469C1460.84 30.4668 1430.33 17.8403 1398.52 17.8403Z" fill="#D2BDFB"/>
<path d="M71.6284 20.0754H0.744141V265.635H71.6284V20.0754Z" fill="white"/>
<path d="M866.67 20.0754H795.786V265.635H866.67V20.0754Z" fill="white"/>
<path d="M184.961 91.6841V89.78L185.954 90.8976L184.961 91.6841Z" fill="#D2BDFB"/>
<path d="M363.713 20.2409V194.316L362.802 195.02C357.338 188.438 261.846 72.5812 218.633 20.0337H113.766V265.531H185.043V89.8624C186.326 91.3111 185.312 90.8972 186.016 90.8765C232.81 147.563 283.163 208.845 329.833 265.594H434.514V20.2409H363.713Z" fill="white"/>
<path d="M714.326 36.5492C694.334 24.4834 672.499 19.9923 649.589 19.9923C592.798 19.9923 474.789 20.158 474.789 20.158V265.718C474.789 265.718 589.218 265.718 645.284 265.718C705.903 265.718 732.746 240.158 746.86 218.386C756.944 203.002 763.268 185.462 765.321 167.183C768.715 140.03 767.639 113.249 757.291 87.524C749.111 66.1836 733.974 48.2245 714.326 36.5492ZM689.304 169.543C683.779 190.239 665.98 205.305 637.336 205.305C625.643 205.305 622.29 205.078 609.707 205.305C590.232 205.471 570.757 205.305 551.261 205.305H547.391L546.398 204.519V82.1636L547.391 81.3981C547.391 81.3981 605.837 80.4669 635.391 81.0257C670.864 81.0257 683.282 98.845 687.856 112.07C694.126 130.643 694.631 150.677 689.304 169.543Z" fill="white"/>
</svg>
