<svg width="1601" height="268" viewBox="0 0 1601 268" fill="none" xmlns="http://www.w3.org/2000/svg">
<path d="M1539.41 23.9662H1565.51C1568.09 23.8775 1570.67 24.2417 1573.12 25.0424C1574.45 25.4647 1575.68 26.1708 1576.71 27.112C1577.74 28.0397 1578.55 29.1846 1579.09 30.4645C1579.58 31.7885 1579.83 33.1905 1579.83 34.6038C1579.92 36.5346 1579.53 38.4576 1578.67 40.1916C1577.75 41.8674 1576.29 43.1862 1574.53 43.9377L1573.99 44.1863C1574.82 44.4347 1575.65 44.7243 1576.46 45.0554C1577.36 45.4587 1578.13 46.1121 1578.67 46.9386C1579.22 47.7617 1579.53 48.7226 1579.56 49.712C1579.69 51.6161 1579.56 53.5201 1579.56 55.4242V58.3422H1569.54V52.1333C1569.53 51.6821 1569.48 51.2329 1569.4 50.7883C1569.34 50.2965 1569.13 49.8372 1568.78 49.4841C1568.44 49.1165 1567.99 48.8818 1567.5 48.8222C1566.81 48.6977 1566.12 48.6352 1565.43 48.6358H1549.22V58.3629H1539.22L1539.41 23.9662ZM1549.43 40.5231H1563.81C1564.7 40.5236 1565.58 40.4612 1566.46 40.3366C1567.17 40.2942 1567.85 40.0012 1568.36 39.509C1568.88 39.0182 1569.21 38.3564 1569.28 37.646C1569.38 36.7314 1569.38 35.8084 1569.28 34.8938C1569.17 34.2281 1568.86 33.612 1568.39 33.1344C1567.9 32.6568 1567.28 32.3515 1566.61 32.2653C1566.03 32.1764 1565.45 32.1278 1564.87 32.1203H1549.53L1549.43 40.5231Z" fill="black"/>
<path d="M1559.34 82.3291C1549.81 82.3572 1540.57 79.0785 1533.19 73.0517C1525.8 67.0249 1520.74 58.6234 1518.86 49.2809C1516.98 39.9384 1518.4 30.2336 1522.88 21.8217C1527.36 13.4097 1534.62 6.81183 1543.42 3.15375C1552.22 -0.504325 1562.01 -0.996212 1571.13 1.76222C1580.26 4.52065 1588.14 10.3585 1593.44 18.2797C1598.73 26.2009 1601.12 35.7146 1600.19 45.1983C1599.25 54.682 1595.06 63.548 1588.32 70.2838C1580.62 77.9573 1570.21 82.2857 1559.34 82.3291V82.3291ZM1559.34 4.90504C1550.94 4.89572 1542.79 7.80163 1536.29 13.1274C1529.78 18.4532 1525.33 25.8689 1523.68 34.111C1522.04 42.3532 1523.3 50.9112 1527.26 58.3264C1531.21 65.7416 1537.62 71.555 1545.38 74.7757C1553.15 77.9964 1561.79 78.4249 1569.83 75.9883C1577.87 73.5518 1584.82 68.4009 1589.5 61.4136C1594.17 54.4264 1596.27 46.0353 1595.45 37.6707C1594.63 29.3061 1590.93 21.4857 1584.98 15.5426C1578.17 8.76217 1568.95 4.94671 1559.34 4.92576V4.90504Z" fill="black"/>
<path d="M1398.16 17.8404H1319.33C1289.51 17.8404 1250.12 26.2638 1231.37 52.0305L1231.18 52.2786L1248.65 72.7882C1261.17 89.1382 1269.55 102.88 1269.55 102.88L1272.16 100.356C1284.58 86.7376 1310.2 82.0191 1322.29 82.0191H1390.01C1404.22 82.0191 1417.85 87.6644 1427.89 97.713C1437.94 107.762 1443.59 121.39 1443.59 135.601V150.088C1443.59 164.299 1437.94 177.928 1427.89 187.977C1417.85 198.025 1404.22 203.671 1390.01 203.671H1339.53C1292.82 203.671 1287.44 181.878 1257.12 130.51C1226.8 79.1422 1188.11 17.7576 1103.1 17.7576H1015.18C983.342 17.7576 952.81 30.4043 930.299 52.9157C907.787 75.4271 895.141 105.959 895.141 137.795V147.874C895.141 179.71 907.787 210.242 930.299 232.753C952.81 255.265 983.342 267.911 1015.18 267.911H1086.56C1115.91 267.911 1152.79 259.405 1180.66 225.919C1182.98 223.518 1191.8 211.597 1191.8 211.597L1194.97 206.879C1194.97 206.879 1177.25 179.787 1161.29 151.496C1143.37 119.748 1131.2 118.154 1125.01 118.154H1030.99V170.537H1133.42L1134.74 171.882V173.268C1134.74 181.36 1129.5 188.211 1121.27 193.964C1112.38 200.361 1101.67 203.741 1090.72 203.609H1023.08C1016.07 203.612 1009.12 202.231 1002.64 199.548C996.157 196.864 990.267 192.93 985.307 187.97C980.346 183.009 976.411 177.119 973.728 170.637C971.044 164.155 969.665 157.208 969.667 150.192V135.353C969.665 128.337 971.044 121.388 973.728 114.905C976.411 108.422 980.345 102.53 985.305 97.568C990.266 92.6056 996.155 88.6693 1002.64 85.9835C1009.12 83.2978 1016.07 81.9156 1023.08 81.9156H1109.24C1149.7 81.9156 1168.37 113.953 1192.85 155.076C1217.34 196.199 1253.39 267.849 1339.47 267.849H1398.16C1430 267.849 1460.53 255.202 1483.04 232.691C1505.55 210.18 1518.2 179.648 1518.2 147.812V137.733C1518.16 105.922 1505.5 75.4271 1482.99 52.947C1460.48 30.467 1429.97 17.8404 1398.16 17.8404Z" fill="black"/>
<path d="M71.268 20.0752H0.383789V265.635H71.268V20.0752Z" fill="black"/>
<path d="M866.309 20.0752H795.425V265.635H866.309V20.0752Z" fill="black"/>
<path d="M184.601 91.6841V89.78L185.594 90.8976L184.601 91.6841Z" fill="black"/>
<path d="M363.352 20.2409V194.316L362.442 195.02C356.978 188.438 261.486 72.5812 218.273 20.0337H113.405V265.531H184.683V89.8624C185.966 91.3111 184.952 90.8972 185.655 90.8765C232.449 147.563 282.803 208.845 329.473 265.594H434.154V20.2409H363.352Z" fill="black"/>
<path d="M713.966 36.5493C693.973 24.4835 672.139 19.9924 649.228 19.9924C592.438 19.9924 474.429 20.1582 474.429 20.1582V265.718C474.429 265.718 588.858 265.718 644.923 265.718C705.542 265.718 732.385 240.158 746.5 218.386C756.584 203.002 762.907 185.462 764.961 167.184C768.355 140.03 767.279 113.249 756.931 87.5242C748.75 66.1837 733.613 48.2246 713.966 36.5493ZM688.944 169.543C683.418 190.239 665.619 205.306 636.976 205.306C625.283 205.306 621.93 205.078 609.347 205.306C589.872 205.471 570.397 205.306 550.901 205.306H547.031L546.037 204.519V82.1637L547.031 81.3982C547.031 81.3982 605.477 80.467 635.031 81.0258C670.504 81.0258 682.922 98.8452 687.495 112.07C693.766 130.643 694.271 150.678 688.944 169.543Z" fill="black"/>
</svg>
